<?xml version="1.0" standalone="no"?>
<!DOCTYPE svg PUBLIC "-//W3C//DTD SVG 20010904//EN"
 "http://www.w3.org/TR/2001/REC-SVG-20010904/DTD/svg10.dtd">
<svg version="1.0" xmlns="http://www.w3.org/2000/svg"
 width="800.000000pt" height="800.000000pt" viewBox="0 0 800.000000 800.000000"
 preserveAspectRatio="xMidYMid meet">

<g transform="translate(0.000000,800.000000) scale(0.100000,-0.100000)"
fill="#000000" stroke="none">
<path d="M0 4000 l0 -4000 4000 0 4000 0 0 4000 0 4000 -4000 0 -4000 0 0
-4000z m2876 3539 c112 -156 231 -282 360 -379 66 -50 196 -152 204 -160 3 -3
37 -31 75 -62 89 -73 106 -88 227 -200 55 -51 104 -94 108 -96 5 -2 56 -59
115 -128 58 -68 110 -124 114 -124 4 0 21 28 37 62 53 113 259 417 299 444 43
28 55 14 55 -70 0 -47 11 -126 30 -209 17 -74 30 -145 30 -157 0 -12 -11 -68
-25 -124 -32 -129 -42 -243 -44 -488 l-2 -198 95 0 c78 0 123 -7 253 -40 180
-47 273 -87 369 -159 49 -37 89 -57 149 -76 76 -23 91 -32 162 -98 43 -41 85
-78 94 -83 25 -15 139 -145 174 -199 95 -148 165 -264 178 -295 8 -19 31 -71
50 -115 50 -115 87 -239 87 -293 1 -26 7 -76 15 -112 7 -35 12 -67 10 -71 -6
-9 13 -180 37 -328 l22 -135 -27 -110 c-38 -161 -60 -292 -52 -318 4 -13 25
-44 46 -70 l39 -47 0 -106 c0 -101 -2 -111 -32 -167 -45 -84 -119 -148 -217
-188 -93 -37 -105 -46 -156 -120 -21 -30 -59 -80 -85 -110 -26 -30 -61 -77
-77 -105 -22 -37 -70 -83 -193 -182 -198 -160 -307 -220 -515 -284 -130 -40
-150 -43 -277 -47 -76 -2 -139 -5 -140 -5 -1 -1 -5 -119 -8 -262 l-5 -260
-125 1 c-214 1 -459 53 -581 124 -151 89 -336 254 -439 392 -19 26 -41 49 -47
52 -7 3 -51 -6 -98 -19 -111 -32 -115 -32 -115 8 0 17 -4 84 -9 147 -5 63 -6
135 -1 160 5 25 7 46 5 48 -2 2 -103 -15 -225 -37 -224 -41 -336 -51 -357 -30
-9 9 -8 21 2 48 13 31 45 185 70 324 3 22 21 73 39 115 36 83 49 141 36 161
-4 8 -116 34 -263 61 -215 41 -266 54 -324 83 -65 33 -202 133 -203 149 0 4
19 12 43 18 106 28 288 105 369 156 107 68 129 83 220 152 53 40 102 79 108
87 18 21 -17 91 -95 190 -78 101 -120 136 -380 324 -392 283 -464 338 -501
382 l-37 44 184 7 c160 6 205 11 344 43 223 50 301 72 367 105 31 16 74 34 97
40 38 10 52 24 33 32 -4 2 -38 41 -75 88 -37 47 -97 121 -133 165 -36 44 -76
100 -88 125 -28 58 -347 530 -389 577 -17 19 -79 78 -137 131 -187 170 -310
293 -304 304 23 38 536 -41 637 -98 59 -32 231 -64 354 -64 50 0 114 -5 142
-12 37 -8 60 -8 85 -1 28 9 63 5 183 -18 81 -16 153 -27 159 -25 14 5 3 93
-26 221 -12 50 -25 106 -29 125 -5 19 -22 82 -39 140 -96 328 -146 774 -127
1143 l7 147 27 0 c20 0 35 -10 57 -41z"/>
<path d="M2829 7493 c-1 -5 0 -12 1 -18 1 -5 4 -131 6 -280 6 -395 42 -635
164 -1080 33 -121 63 -251 67 -289 l6 -68 -49 5 c-27 3 -137 11 -244 17 -209
12 -452 49 -890 136 -257 51 -330 61 -330 48 0 -16 43 -59 131 -132 164 -136
270 -258 415 -477 186 -279 458 -682 476 -701 10 -11 18 -24 18 -30 0 -12 -81
-65 -158 -103 -167 -83 -379 -132 -679 -156 -46 -4 -83 -11 -83 -15 0 -21 177
-171 243 -206 40 -21 101 -62 137 -91 35 -29 79 -57 98 -62 81 -23 339 -274
416 -405 34 -58 32 -116 -4 -169 -58 -85 -460 -331 -575 -353 -44 -8 -84 -38
-70 -52 6 -6 44 -20 85 -32 41 -12 107 -39 145 -59 39 -20 89 -42 111 -49 69
-20 234 -42 317 -42 70 0 77 -2 77 -20 0 -67 -80 -412 -135 -584 -14 -44 -23
-81 -20 -84 5 -5 166 20 425 67 l155 28 -2 34 c-1 19 -21 114 -45 213 l-43
178 -68 17 c-87 22 -127 55 -205 169 l-63 92 24 121 c22 108 28 124 64 167 26
31 62 59 108 82 l70 35 -3 320 c-3 255 1 376 18 595 11 151 24 293 29 315 5
22 21 94 35 160 15 66 38 172 52 235 47 212 107 355 230 541 210 320 533 487
975 506 l136 6 7 156 c10 255 11 616 1 621 -11 6 -169 -227 -225 -332 -40 -75
-88 -128 -115 -128 -8 0 -47 39 -86 88 -181 218 -282 313 -550 520 -142 110
-438 369 -494 434 -28 32 -56 71 -64 88 -13 27 -39 41 -42 23z"/>
<path d="M4075 5950 c-131 -23 -230 -53 -332 -100 -116 -54 -186 -103 -279
-195 -158 -156 -260 -348 -379 -712 -41 -125 -52 -183 -60 -338 -4 -66 -11
-140 -16 -165 -10 -43 -26 -277 -32 -440 -4 -140 12 -774 22 -880 6 -58 16
-152 22 -209 5 -57 21 -158 34 -225 13 -66 34 -179 45 -251 12 -71 37 -177 56
-235 50 -152 147 -340 214 -416 30 -34 71 -82 91 -106 75 -89 349 -278 404
-278 12 0 47 -13 77 -29 96 -51 149 -62 312 -62 81 0 151 2 154 6 3 3 -4 129
-16 280 l-21 276 -39 39 c-53 54 -86 118 -116 225 -18 60 -34 96 -49 108 -122
96 -154 127 -188 180 -22 33 -41 62 -43 65 -2 2 -98 -27 -212 -64 -115 -36
-217 -69 -226 -71 -11 -3 -18 0 -18 9 0 29 37 47 190 92 85 25 175 52 200 61
79 28 181 46 330 56 85 6 148 15 152 22 3 6 7 72 7 147 1 133 1 137 -25 166
-44 50 -75 105 -101 178 -23 65 -26 89 -30 289 -4 136 -2 217 4 217 23 0 47
-42 44 -75 -3 -40 -2 -85 2 -245 2 -80 8 -130 21 -165 18 -51 66 -135 77 -135
3 0 9 82 13 183 11 264 25 1651 17 1658 -3 4 -58 -4 -121 -18 -63 -13 -158
-25 -210 -27 -103 -4 -123 -16 -64 -41 56 -23 159 -100 197 -148 48 -58 93
-151 112 -228 31 -134 12 -327 -46 -441 -100 -198 -337 -338 -575 -338 -143 0
-255 36 -362 118 -236 178 -310 499 -184 793 16 37 31 53 73 77 30 17 56 29
58 26 3 -2 -5 -18 -18 -34 -49 -67 -72 -105 -78 -129 -3 -14 -15 -36 -27 -49
-16 -19 -20 -34 -17 -70 1 -26 4 -66 4 -89 1 -25 6 -43 13 -43 6 0 69 11 140
24 209 39 338 56 524 67 208 13 228 13 300 4 32 -4 72 -2 96 4 35 9 42 16 46
40 6 44 -14 111 -48 162 -17 24 -45 65 -63 91 -23 34 -47 54 -89 74 -86 42
-111 61 -105 83 3 12 -2 23 -14 29 -17 10 -213 21 -438 26 -107 2 -275 36
-275 56 0 4 -12 25 -26 46 l-27 39 19 35 c36 67 58 71 329 66 132 -3 265 -8
295 -12 54 -6 371 24 515 49 l70 12 3 93 c3 86 1 93 -15 88 -157 -45 -340 -66
-553 -64 -104 2 -190 6 -190 9 0 3 13 15 28 26 26 19 38 20 167 15 146 -5 319
12 480 46 l80 17 0 45 c0 35 -3 44 -15 42 -8 -2 -71 -17 -140 -33 -129 -30
-219 -36 -264 -19 -60 23 -17 43 94 44 52 1 113 11 201 35 l127 35 6 50 c3 28
6 147 6 264 l0 212 -112 -1 c-62 -1 -158 -9 -213 -19z m-25 -2487 c0 -5 -9
-23 -20 -41 -15 -24 -41 -43 -93 -67 -100 -48 -175 -66 -297 -72 -130 -7 -307
19 -327 47 -7 10 -29 28 -48 40 -30 18 -65 64 -65 85 0 14 25 2 64 -30 85 -70
188 -97 371 -98 100 -1 118 2 195 31 47 18 112 50 145 71 62 41 75 46 75 34z
m-683 -961 c-26 -47 -61 -171 -52 -182 3 -3 39 -39 82 -81 51 -51 74 -82 70
-92 -11 -28 -100 29 -141 91 -56 85 -71 135 -57 183 12 41 106 148 118 135 3
-3 -6 -28 -20 -54z"/>
<path d="M4315 5004 c-33 -7 -100 -16 -150 -19 -49 -4 -112 -13 -140 -20 -37
-10 -94 -12 -215 -9 -91 3 -252 8 -359 11 l-193 5 -29 -28 c-16 -15 -29 -33
-29 -39 0 -6 71 -26 158 -44 121 -27 183 -35 272 -36 63 -1 134 -7 157 -14 75
-24 572 29 595 63 10 14 10 134 1 139 -5 2 -35 -2 -68 -9z"/>
<path d="M4449 4948 c-1 -140 -19 -966 -25 -1158 -6 -177 -4 -226 15 -360 12
-85 23 -170 26 -189 5 -37 29 -69 61 -81 15 -6 25 -24 33 -57 l13 -48 -45 -40
-46 -40 -2 -183 c-1 -100 1 -185 4 -188 3 -4 44 -12 89 -19 103 -16 179 -44
249 -93 48 -33 54 -42 54 -72 l0 -35 -202 -3 -202 -2 -6 -53 c-3 -28 -5 -153
-3 -277 l3 -225 34 -3 c19 -2 64 3 100 12 36 8 89 18 116 21 89 10 237 57 344
107 274 127 467 304 684 626 68 100 112 279 153 616 16 129 16 148 1 260 -9
67 -19 157 -21 201 -7 119 -65 350 -113 455 -14 30 -38 83 -54 118 -53 117
-112 205 -193 290 -246 257 -515 400 -871 462 -60 11 -129 20 -152 20 l-43 0
-1 -62z m646 -381 c129 -28 179 -43 243 -76 46 -24 47 -24 31 -52 -7 -14 -14
-17 -22 -11 -22 17 -180 69 -257 85 -41 9 -127 19 -190 22 -89 5 -118 10 -127
22 -10 13 -10 20 -1 31 18 21 176 10 323 -21z m100 -232 c194 -41 348 -177
430 -380 76 -188 20 -429 -135 -586 -75 -76 -132 -110 -250 -149 -107 -36
-194 -45 -292 -31 -213 33 -354 130 -443 306 -36 71 -40 87 -44 167 -4 106 13
231 41 305 29 77 110 195 172 247 137 117 328 162 521 121z"/>
<path d="M4893 4296 c-177 -66 -310 -203 -363 -373 -17 -54 -18 -82 -13 -220
6 -152 7 -160 37 -213 70 -126 210 -225 357 -251 81 -14 264 -1 350 25 152 47
274 177 323 345 24 81 22 261 -4 344 -36 117 -135 225 -267 291 -158 79 -300
96 -420 52z m231 -539 c12 -32 -18 -87 -37 -68 -6 6 -19 11 -29 11 -10 0 -21
7 -25 15 -6 18 23 55 44 55 7 0 13 5 13 11 0 20 25 3 34 -24z"/>
<path d="M3753 4223 c-7 -3 -13 -11 -13 -18 0 -8 -5 -37 -11 -65 -9 -41 -17
-55 -42 -71 -18 -10 -36 -19 -42 -19 -5 0 -27 31 -48 70 -21 38 -42 72 -46 74
-5 3 -44 -1 -87 -9 -229 -41 -335 -62 -341 -68 -3 -4 -1 -26 6 -49 47 -166
130 -295 234 -362 29 -19 241 -64 342 -73 134 -11 259 36 374 143 103 96 114
117 145 283 15 79 25 145 23 148 -3 2 -97 6 -208 9 -112 3 -220 6 -239 8 -19
2 -41 1 -47 -1z"/>
<path d="M2840 3254 c-55 -37 -69 -53 -94 -106 -24 -51 -30 -77 -30 -138 -1
-75 -1 -75 54 -157 50 -76 61 -86 126 -118 80 -40 94 -42 94 -17 0 9 -14 140
-30 290 -17 151 -30 278 -30 283 0 18 -26 7 -90 -37z"/>
<path d="M5939 3238 c0 -2 -2 -54 -4 -117 -5 -125 -26 -264 -55 -367 l-19 -66
27 7 c32 7 153 78 170 98 14 17 62 141 69 178 3 14 -2 43 -11 63 -9 21 -16 46
-16 55 0 26 -156 170 -161 149z"/>
<path d="M4472 3130 c0 -25 3 -58 7 -75 7 -29 7 -30 19 -8 18 32 15 78 -8 104
l-19 24 1 -45z"/>
<path d="M4176 2523 c-80 -3 -105 -8 -127 -24 -16 -11 -29 -27 -29 -35 0 -26
53 -84 110 -119 102 -62 140 -122 140 -217 0 -47 5 -60 40 -106 21 -29 42 -54
46 -55 4 -1 6 84 4 188 -2 105 -4 231 -4 280 l-1 90 -40 1 c-22 0 -85 -1 -139
-3z"/>
<path d="M3093 2063 c4 -71 7 -147 7 -170 0 -29 4 -43 13 -43 20 0 117 49 117
59 0 4 -23 54 -50 110 -28 56 -57 118 -65 137 -8 18 -17 34 -21 34 -4 0 -4
-57 -1 -127z"/>
</g>
</svg>
